<?xml version="1.0" encoding="UTF-8"?>
<!DOCTYPE svg PUBLIC "-//W3C//DTD SVG 1.1//EN" "http://www.w3.org/Graphics/SVG/1.1/DTD/svg11.dtd">
<svg xmlns="http://www.w3.org/2000/svg" version="1.1" width="768px" height="768px" style="shape-rendering:geometricPrecision; text-rendering:geometricPrecision; image-rendering:optimizeQuality; fill-rule:evenodd; clip-rule:evenodd" xmlns:xlink="http://www.w3.org/1999/xlink">
<g><path style="opacity:0.986" fill="#8a9bcb" d="M 535.5,32.5 C 434.001,33.4994 332.335,33.8328 230.5,33.5C 318.252,-3.70525 407.918,-8.53858 499.5,19C 511.722,23.0171 523.722,27.5171 535.5,32.5 Z"/></g>
<g><path style="opacity:0.997" fill="#8697c9" d="M 535.5,32.5 C 573.196,48.6633 607.196,70.33 637.5,97.5C 468.43,97.8319 299.43,97.4985 130.5,96.5C 160.147,69.9901 193.48,48.9901 230.5,33.5C 332.335,33.8328 434.001,33.4994 535.5,32.5 Z"/></g>
<g><path style="opacity:0.999" fill="#8193c8" d="M 130.5,96.5 C 299.43,97.4985 468.43,97.8319 637.5,97.5C 657.01,113.67 674.01,132.004 688.5,152.5C 485.167,152.5 281.833,152.5 78.5,152.5C 93.3458,131.649 110.679,112.983 130.5,96.5 Z"/></g>
<g><path style="opacity:0.999" fill="#7d90c7" d="M 78.5,152.5 C 281.833,152.5 485.167,152.5 688.5,152.5C 696.222,161.598 703.222,171.265 709.5,181.5C 492.5,181.5 275.5,181.5 58.5,181.5C 60.4711,176.895 62.9711,172.562 66,168.5C 70.0304,162.98 74.197,157.647 78.5,152.5 Z"/></g>
<g><path style="opacity:0.999" fill="#798cc5" d="M 58.5,181.5 C 275.5,181.5 492.5,181.5 709.5,181.5C 723.496,203.492 734.829,226.825 743.5,251.5C 503.5,251.5 263.5,251.5 23.5,251.5C 32.5499,226.733 44.2166,203.4 58.5,181.5 Z"/></g>
<g><path style="opacity:0.999" fill="#758ac4" d="M 23.5,251.5 C 263.5,251.5 503.5,251.5 743.5,251.5C 745.734,255.522 747.401,259.856 748.5,264.5C 628.167,264.5 507.833,264.5 387.5,264.5C 380.197,263.169 372.53,262.502 364.5,262.5C 356.833,262.667 349.167,262.833 341.5,263C 340.944,263.383 340.611,263.883 340.5,264.5C 233.332,264.833 126.332,264.499 19.5,263.5C 20.2382,259.285 21.5715,255.285 23.5,251.5 Z"/></g>
<g><path style="opacity:1" fill="#e7ebf5" d="M 387.5,264.5 C 384.499,280.504 381.499,296.504 378.5,312.5C 395.837,312.333 413.17,312.5 430.5,313C 446.593,313.96 459.427,320.794 469,333.5C 472.195,339.825 473.195,346.491 472,353.5C 466.812,384.912 461.312,416.246 455.5,447.5C 455.326,449.861 454.993,452.194 454.5,454.5C 438.167,454.5 421.833,454.5 405.5,454.5C 405.575,451.794 405.908,449.127 406.5,446.5C 411.47,420.818 416.637,395.151 422,369.5C 423.262,364.213 423.596,358.88 423,353.5C 420.654,350.372 417.487,348.539 413.5,348C 399.171,347.5 384.837,347.333 370.5,347.5C 363.833,380.5 357.167,413.5 350.5,446.5C 349.612,449.054 349.279,451.721 349.5,454.5C 333.833,454.5 318.167,454.5 302.5,454.5C 306.117,433.748 310.117,413.081 314.5,392.5C 323.784,350.082 332.451,307.415 340.5,264.5C 340.611,263.883 340.944,263.383 341.5,263C 349.167,262.833 356.833,262.667 364.5,262.5C 372.53,262.502 380.197,263.169 387.5,264.5 Z"/></g>
<g><path style="opacity:0.999" fill="#7387c3" d="M 19.5,263.5 C 126.332,264.499 233.332,264.833 340.5,264.5C 332.451,307.415 323.784,350.082 314.5,392.5C 314.5,391.833 314.167,391.5 313.5,391.5C 316.756,377.606 317.256,363.606 315,349.5C 309.659,331.493 297.826,320.327 279.5,316C 274.322,314.202 268.989,313.202 263.5,313C 231.168,312.5 198.835,312.333 166.5,312.5C 166.247,316.04 165.581,319.373 164.5,322.5C 111.51,320.504 58.1771,319.838 4.5,320.5C 7.80332,300.948 12.8033,281.948 19.5,263.5 Z"/></g>
<g><path style="opacity:0.999" fill="#7387c3" d="M 387.5,264.5 C 507.833,264.5 628.167,264.5 748.5,264.5C 754.729,282.75 759.396,301.417 762.5,320.5C 713.664,320.168 664.997,320.501 616.5,321.5C 607.661,317.166 598.328,314.332 588.5,313C 555.502,312.5 522.502,312.333 489.5,312.5C 480.402,357.661 471.069,402.661 461.5,447.5C 459.611,446.258 457.611,446.258 455.5,447.5C 461.312,416.246 466.812,384.912 472,353.5C 473.195,346.491 472.195,339.825 469,333.5C 459.427,320.794 446.593,313.96 430.5,313C 413.17,312.5 395.837,312.333 378.5,312.5C 381.499,296.504 384.499,280.504 387.5,264.5 Z"/></g>
<g><path style="opacity:1" fill="#e7eaf5" d="M 313.5,391.5 C 305.886,417.895 289.553,436.728 264.5,448C 256.722,450.944 248.722,452.944 240.5,454C 221.503,454.5 202.503,454.667 183.5,454.5C 182.833,459.5 182.167,464.5 181.5,469.5C 178.549,480.924 176.215,492.591 174.5,504.5C 158.833,504.5 143.167,504.5 127.5,504.5C 131.424,485.879 135.091,467.212 138.5,448.5C 142.992,429.043 146.992,409.377 150.5,389.5C 153.658,376.71 156.325,363.71 158.5,350.5C 160.862,341.364 162.862,332.031 164.5,322.5C 165.581,319.373 166.247,316.04 166.5,312.5C 198.835,312.333 231.168,312.5 263.5,313C 268.989,313.202 274.322,314.202 279.5,316C 297.826,320.327 309.659,331.493 315,349.5C 317.256,363.606 316.756,377.606 313.5,391.5 Z"/></g>
<g><path style="opacity:1" fill="#e7ebf5" d="M 616.5,321.5 C 627.473,328.464 634.806,338.131 638.5,350.5C 640.308,363.986 639.641,377.32 636.5,390.5C 629.568,415.754 614.568,434.421 591.5,446.5C 582.528,450.244 573.194,452.744 563.5,454C 544.503,454.5 525.503,454.667 506.5,454.5C 505.5,460.5 504.5,466.5 503.5,472.5C 500.864,483.017 498.864,493.684 497.5,504.5C 481.833,504.5 466.167,504.5 450.5,504.5C 453.013,493.603 455.013,482.603 456.5,471.5C 458.656,463.723 460.323,455.723 461.5,447.5C 471.069,402.661 480.402,357.661 489.5,312.5C 522.502,312.333 555.502,312.5 588.5,313C 598.328,314.332 607.661,317.166 616.5,321.5 Z"/></g>
<g><path style="opacity:0.999" fill="#6f84c2" d="M 4.5,320.5 C 58.1771,319.838 111.51,320.504 164.5,322.5C 162.862,332.031 160.862,341.364 158.5,350.5C 132.675,349.167 106.509,348.5 80,348.5C 53.4289,348.504 26.9289,348.838 0.5,349.5C 1.83134,339.847 3.16468,330.18 4.5,320.5 Z"/></g>
<g><path style="opacity:0.998" fill="#6f84c2" d="M 762.5,320.5 C 764.112,329.782 765.445,339.115 766.5,348.5C 723.487,347.839 680.82,348.505 638.5,350.5C 634.806,338.131 627.473,328.464 616.5,321.5C 664.997,320.501 713.664,320.168 762.5,320.5 Z"/></g>
<g><path style="opacity:0.999" fill="#6c81c1" d="M 766.5,348.5 C 766.198,351.059 766.532,353.393 767.5,355.5C 767.5,366.833 767.5,378.167 767.5,389.5C 723.761,389.172 680.094,389.506 636.5,390.5C 639.641,377.32 640.308,363.986 638.5,350.5C 680.82,348.505 723.487,347.839 766.5,348.5 Z"/></g>
<g><path style="opacity:0.998" fill="#6c81c1" d="M 158.5,350.5 C 156.325,363.71 153.658,376.71 150.5,389.5C 100.167,389.5 49.8333,389.5 -0.5,389.5C -0.5,379.833 -0.5,370.167 -0.5,360.5C 0.481638,357.038 0.814971,353.371 0.5,349.5C 26.9289,348.838 53.4289,348.504 80,348.5C 106.509,348.5 132.675,349.167 158.5,350.5 Z"/></g>
<g><path style="opacity:0.998" fill="#687ec0" d="M -0.5,389.5 C 49.8333,389.5 100.167,389.5 150.5,389.5C 146.992,409.377 142.992,429.043 138.5,448.5C 116.51,447.167 94.1768,446.5 71.5,446.5C 48.9975,446.5 26.6642,446.833 4.5,447.5C 2.24906,435.573 0.582392,423.573 -0.5,411.5C -0.5,404.167 -0.5,396.833 -0.5,389.5 Z"/></g>
<g><path style="opacity:1" fill="#6b81c1" d="M 206.5,347.5 C 219.504,347.333 232.504,347.5 245.5,348C 265.578,351.975 272.412,363.808 266,383.5C 262.09,404.412 249.59,415.912 228.5,418C 217.172,418.5 205.838,418.667 194.5,418.5C 198.18,394.753 202.18,371.086 206.5,347.5 Z"/></g>
<g><path style="opacity:1" fill="#6980c0" d="M 406.5,446.5 C 387.833,446.5 369.167,446.5 350.5,446.5C 357.167,413.5 363.833,380.5 370.5,347.5C 384.837,347.333 399.171,347.5 413.5,348C 417.487,348.539 420.654,350.372 423,353.5C 423.596,358.88 423.262,364.213 422,369.5C 416.637,395.151 411.47,420.818 406.5,446.5 Z"/></g>
<g><path style="opacity:1" fill="#6b81c1" d="M 547.5,418.5 C 537.111,419.141 527.111,418.474 517.5,416.5C 521.223,393.826 525.057,371.16 529,348.5C 541.091,347.346 553.258,347.179 565.5,348C 577.077,348.026 585.244,353.192 590,363.5C 590.743,377.378 587.743,390.378 581,402.5C 572.296,412.767 561.129,418.1 547.5,418.5 Z"/></g>
<g><path style="opacity:0.998" fill="#687ec0" d="M 767.5,389.5 C 767.5,398.5 767.5,407.5 767.5,416.5C 766.183,426.363 764.849,436.363 763.5,446.5C 706.167,446.5 648.833,446.5 591.5,446.5C 614.568,434.421 629.568,415.754 636.5,390.5C 680.094,389.506 723.761,389.172 767.5,389.5 Z"/></g>
<g><path style="opacity:1" fill="#adb9dc" d="M 517.5,416.5 C 527.111,418.474 537.111,419.141 547.5,418.5C 537.347,419.494 527.014,419.828 516.5,419.5C 516.263,418.209 516.596,417.209 517.5,416.5 Z"/></g>
<g><path style="opacity:1" fill="#657cbf" d="M 313.5,391.5 C 314.167,391.5 314.5,391.833 314.5,392.5C 310.117,413.081 306.117,433.748 302.5,454.5C 318.167,454.5 333.833,454.5 349.5,454.5C 349.279,451.721 349.612,449.054 350.5,446.5C 369.167,446.5 387.833,446.5 406.5,446.5C 405.908,449.127 405.575,451.794 405.5,454.5C 421.833,454.5 438.167,454.5 454.5,454.5C 454.993,452.194 455.326,449.861 455.5,447.5C 457.611,446.258 459.611,446.258 461.5,447.5C 460.323,455.723 458.656,463.723 456.5,471.5C 365.173,469.502 273.506,468.836 181.5,469.5C 182.167,464.5 182.833,459.5 183.5,454.5C 202.503,454.667 221.503,454.5 240.5,454C 248.722,452.944 256.722,450.944 264.5,448C 289.553,436.728 305.886,417.895 313.5,391.5 Z"/></g>
<g><path style="opacity:0.999" fill="#647bbf" d="M 591.5,446.5 C 648.833,446.5 706.167,446.5 763.5,446.5C 762.451,454.419 760.785,462.086 758.5,469.5C 673.833,469.5 589.167,469.5 504.5,469.5C 504.737,470.791 504.404,471.791 503.5,472.5C 504.5,466.5 505.5,460.5 506.5,454.5C 525.503,454.667 544.503,454.5 563.5,454C 573.194,452.744 582.528,450.244 591.5,446.5 Z"/></g>
<g><path style="opacity:0.999" fill="#6178bd" d="M 138.5,448.5 C 135.091,467.212 131.424,485.879 127.5,504.5C 143.167,504.5 158.833,504.5 174.5,504.5C 176.215,492.591 178.549,480.924 181.5,469.5C 273.506,468.836 365.173,469.502 456.5,471.5C 455.013,482.603 453.013,493.603 450.5,504.5C 466.167,504.5 481.833,504.5 497.5,504.5C 498.864,493.684 500.864,483.017 503.5,472.5C 504.404,471.791 504.737,470.791 504.5,469.5C 589.167,469.5 673.833,469.5 758.5,469.5C 754.752,490.738 748.419,511.071 739.5,530.5C 501.792,530.165 264.126,529.165 26.5,527.5C 15.7446,501.883 8.41127,475.216 4.5,447.5C 26.6642,446.833 48.9975,446.5 71.5,446.5C 94.1768,446.5 116.51,447.167 138.5,448.5 Z"/></g>
<g><path style="opacity:0.999" fill="#5c74bc" d="M 26.5,527.5 C 264.126,529.165 501.792,530.165 739.5,530.5C 733.44,547.285 725.774,563.285 716.5,578.5C 494.666,578.167 272.999,578.5 51.5,579.5C 41.5778,562.987 33.2445,545.654 26.5,527.5 Z"/></g>
<g><path style="opacity:0.999" fill="#5871ba" d="M 716.5,578.5 C 709.566,590.717 701.899,602.384 693.5,613.5C 486.999,613.167 280.666,613.5 74.5,614.5C 66.1009,603.384 58.4342,591.717 51.5,579.5C 272.999,578.5 494.666,578.167 716.5,578.5 Z"/></g>
<g><path style="opacity:0.999" fill="#546eb9" d="M 693.5,613.5 C 677.027,636.979 657.694,657.979 635.5,676.5C 467.833,676.5 300.167,676.5 132.5,676.5C 122.271,668.778 112.771,660.111 104,650.5C 93.1982,639.207 83.3649,627.207 74.5,614.5C 280.666,613.5 486.999,613.167 693.5,613.5 Z"/></g>
<g><path style="opacity:0.998" fill="#506bb8" d="M 132.5,676.5 C 300.167,676.5 467.833,676.5 635.5,676.5C 627.082,684.214 618.082,691.214 608.5,697.5C 458.5,697.5 308.5,697.5 158.5,697.5C 149.23,691.228 140.563,684.228 132.5,676.5 Z"/></g>
<g><path style="opacity:0.996" fill="#4d68b7" d="M 158.5,697.5 C 308.5,697.5 458.5,697.5 608.5,697.5C 556.678,734.899 499.012,758.232 435.5,767.5C 400.833,767.5 366.167,767.5 331.5,767.5C 267.985,758.227 210.318,734.893 158.5,697.5 Z"/></g>
</svg>
