<?xml version="1.0" encoding="UTF-8"?>
<!DOCTYPE svg PUBLIC "-//W3C//DTD SVG 1.1//EN" "http://www.w3.org/Graphics/SVG/1.1/DTD/svg11.dtd">
<svg xmlns="http://www.w3.org/2000/svg" version="1.1" width="1280px" height="640px" style="shape-rendering:geometricPrecision; text-rendering:geometricPrecision; image-rendering:optimizeQuality; fill-rule:evenodd; clip-rule:evenodd" xmlns:xlink="http://www.w3.org/1999/xlink">
<g><path style="opacity:1" fill="#fefefe" d="M -0.5,-0.5 C 426.167,-0.5 852.833,-0.5 1279.5,-0.5C 1279.5,212.833 1279.5,426.167 1279.5,639.5C 852.833,639.5 426.167,639.5 -0.5,639.5C -0.5,426.167 -0.5,212.833 -0.5,-0.5 Z"/></g>
<g><path style="opacity:1" fill="#000000" d="M 638.5,90.5 C 639.675,90.281 640.675,90.6143 641.5,91.5C 717.14,167.806 793.14,243.806 869.5,319.5C 793.167,396.5 716.5,473.167 639.5,549.5C 563.167,472.833 486.833,396.167 410.5,319.5C 486.521,243.146 562.521,166.812 638.5,90.5 Z"/></g>
<g><path style="opacity:1" fill="#fcfcfc" d="M 699.5,367.5 C 704.305,368.487 709.305,368.821 714.5,368.5C 714.5,380.5 714.5,392.5 714.5,404.5C 704.5,404.5 694.5,404.5 684.5,404.5C 680.489,404.498 676.822,403.332 673.5,401C 670.694,398.194 667.86,395.36 665,392.5C 662.771,386.836 660.604,381.169 658.5,375.5C 655.919,380.718 653.419,386.051 651,391.5C 642.938,401.639 632.438,407.472 619.5,409C 577.614,411.446 558.114,391.613 561,349.5C 563.248,334.163 571.082,322.663 584.5,315C 593.102,310.799 602.102,307.799 611.5,306C 625.829,305.5 640.163,305.333 654.5,305.5C 657.13,272.315 642.464,260.815 610.5,271C 607.5,273.333 604.5,275.667 601.5,278C 599.014,281.485 596.181,284.652 593,287.5C 584.339,278.901 575.505,270.401 566.5,262C 578.617,243.549 595.617,232.882 617.5,230C 638.799,227.276 658.799,230.943 677.5,241C 689.994,250.819 697.161,263.652 699,279.5C 699.5,308.831 699.667,338.165 699.5,367.5 Z"/></g>
<g><path style="opacity:1" fill="#020202" d="M 620.5,333.5 C 631.833,333.5 643.167,333.5 654.5,333.5C 655.106,344.306 654.273,354.973 652,365.5C 640.258,376.173 627.091,378.34 612.5,372C 609.366,369.612 607.533,366.446 607,362.5C 603.212,348.607 607.712,338.94 620.5,333.5 Z"/></g>
<g><path style="opacity:1" fill="#919191" d="M 699.5,367.5 C 704.833,367.5 710.167,367.5 715.5,367.5C 715.5,380.167 715.5,392.833 715.5,405.5C 704.986,405.828 694.653,405.494 684.5,404.5C 694.5,404.5 704.5,404.5 714.5,404.5C 714.5,392.5 714.5,380.5 714.5,368.5C 709.305,368.821 704.305,368.487 699.5,367.5 Z"/></g>
</svg>
