<?xml version="1.0" encoding="UTF-8"?>
<!DOCTYPE svg PUBLIC "-//W3C//DTD SVG 1.1//EN" "http://www.w3.org/Graphics/SVG/1.1/DTD/svg11.dtd">
<svg xmlns="http://www.w3.org/2000/svg" version="1.1" width="1067px" height="576px" style="shape-rendering:geometricPrecision; text-rendering:geometricPrecision; image-rendering:optimizeQuality; fill-rule:evenodd; clip-rule:evenodd" xmlns:xlink="http://www.w3.org/1999/xlink">
<g><path style="opacity:0.99" fill="#adb1d4" d="M 536.5,14.5 C 538.63,20.8867 540.963,27.22 543.5,33.5C 528.005,34.1667 512.672,34.8333 497.5,35.5C 400.412,37.6176 306.745,56.4509 216.5,92C 174.566,109.28 136.233,132.113 101.5,160.5C 99.955,159.77 99.1216,158.437 99,156.5C 97.948,150.856 97.1147,145.189 96.5,139.5C 124.273,116.965 154.606,98.132 187.5,83C 260.226,50.5397 336.226,29.873 415.5,21C 455.688,16.1217 496.022,13.955 536.5,14.5 Z"/></g>
<g><path style="opacity:0.984" fill="#999dc5" d="M 536.5,14.5 C 558.535,14.2406 580.535,14.9073 602.5,16.5C 602.077,17.2646 601.743,18.0979 601.5,19C 603.09,24.5287 604.757,30.0287 606.5,35.5C 603.232,36.487 599.898,36.8204 596.5,36.5C 563.511,35.5921 530.511,35.2587 497.5,35.5C 512.672,34.8333 528.005,34.1667 543.5,33.5C 540.963,27.22 538.63,20.8867 536.5,14.5 Z"/></g>
<g><path style="opacity:0.984" fill="#8a8eba" d="M 602.5,16.5 C 614.848,17.3345 627.181,18.3345 639.5,19.5C 641.397,25.9225 643.064,32.4225 644.5,39C 644.164,40.0299 643.497,40.5299 642.5,40.5C 626.993,39.5137 611.659,38.1804 596.5,36.5C 599.898,36.8204 603.232,36.487 606.5,35.5C 604.757,30.0287 603.09,24.5287 601.5,19C 601.743,18.0979 602.077,17.2646 602.5,16.5 Z"/></g>
<g><path style="opacity:0.979" fill="#787cad" d="M 639.5,19.5 C 662.804,21.9958 685.804,25.6625 708.5,30.5C 707.876,30.9169 707.543,31.5836 707.5,32.5C 708.841,38.8757 710.175,45.209 711.5,51.5C 688.464,47.1638 665.464,43.4971 642.5,40.5C 643.497,40.5299 644.164,40.0299 644.5,39C 643.064,32.4225 641.397,25.9225 639.5,19.5 Z"/></g>
<g><path style="opacity:0.984" fill="#6a6ea2" d="M 708.5,30.5 C 718.988,31.7309 729.321,33.7309 739.5,36.5C 740.004,44.0465 741.338,51.3798 743.5,58.5C 732.932,55.7385 722.266,53.4051 711.5,51.5C 710.175,45.209 708.841,38.8757 707.5,32.5C 707.543,31.5836 707.876,30.9169 708.5,30.5 Z"/></g>
<g><path style="opacity:1" fill="#777bb3" d="M 497.5,35.5 C 530.511,35.2587 563.511,35.5921 596.5,36.5C 611.659,38.1804 626.993,39.5137 642.5,40.5C 665.464,43.4971 688.464,47.1638 711.5,51.5C 722.266,53.4051 732.932,55.7385 743.5,58.5C 756.52,61.6719 769.52,65.0052 782.5,68.5C 794.802,72.4892 807.135,76.4892 819.5,80.5C 873.631,98.8879 922.631,126.055 966.5,162C 993.911,185.666 1013.74,214.499 1026,248.5C 1036.45,287.571 1031.45,324.571 1011,359.5C 992.634,388.867 969.134,413.367 940.5,433C 893.976,464.425 843.642,488.092 789.5,504C 711.735,526.038 632.402,537.871 551.5,539.5C 532.167,539.5 512.833,539.5 493.5,539.5C 463.212,537.963 432.879,535.297 402.5,531.5C 335.557,522.239 270.891,504.739 208.5,479C 196.103,473.133 183.77,467.3 171.5,461.5C 136.204,442.737 104.704,418.737 77,389.5C 52.5342,362.559 38.3676,330.892 34.5,294.5C 33.8609,273.663 37.5276,253.663 45.5,234.5C 52.2368,220.017 60.2368,206.35 69.5,193.5C 79.4675,181.865 90.1341,170.865 101.5,160.5C 136.233,132.113 174.566,109.28 216.5,92C 306.745,56.4509 400.412,37.6176 497.5,35.5 Z"/></g>
<g><path style="opacity:0.985" fill="#5e6299" d="M 739.5,36.5 C 753.208,39.6771 766.875,43.0105 780.5,46.5C 781.386,53.8111 782.053,61.1445 782.5,68.5C 769.52,65.0052 756.52,61.6719 743.5,58.5C 741.338,51.3798 740.004,44.0465 739.5,36.5 Z"/></g>
<g><path style="opacity:0.981" fill="#525691" d="M 780.5,46.5 C 793.15,50.4969 805.817,54.4969 818.5,58.5C 819.038,65.8219 819.371,73.1553 819.5,80.5C 807.135,76.4892 794.802,72.4892 782.5,68.5C 782.053,61.1445 781.386,53.8111 780.5,46.5 Z"/></g>
<g><path style="opacity:0.987" fill="#484c89" d="M 818.5,58.5 C 863.051,73.9431 905.051,94.4431 944.5,120C 976.624,141.791 1003.79,168.624 1026,200.5C 1061.62,259.018 1061.29,317.351 1025,375.5C 1003.79,406.377 977.624,432.21 946.5,453C 885.512,492.147 819.512,519.814 748.5,536C 669.866,554.063 590.199,562.23 509.5,560.5C 523.469,553.516 537.469,546.516 551.5,539.5C 632.402,537.871 711.735,526.038 789.5,504C 843.642,488.092 893.976,464.425 940.5,433C 969.134,413.367 992.634,388.867 1011,359.5C 1031.45,324.571 1036.45,287.571 1026,248.5C 1013.74,214.499 993.911,185.666 966.5,162C 922.631,126.055 873.631,98.8879 819.5,80.5C 819.371,73.1553 819.038,65.8219 818.5,58.5 Z"/></g>
<g><path style="opacity:1" fill="#fafafb" d="M 481.5,82.5 C 503.169,82.3334 524.836,82.5 546.5,83C 554.095,86.4728 556.595,92.3062 554,100.5C 550.174,118.786 546.674,137.119 543.5,155.5C 562.836,155.333 582.17,155.5 601.5,156C 619.321,156.634 635.987,161.301 651.5,170C 664.547,179.717 672.714,192.55 676,208.5C 678.907,191.961 682.574,175.628 687,159.5C 688.41,158.213 689.91,157.046 691.5,156C 738.856,155.045 786.19,155.379 833.5,157C 866.081,159.847 890.248,175.347 906,203.5C 915.762,227.313 917.096,251.646 910,276.5C 897.088,327.078 865.588,359.578 815.5,374C 805.561,375.771 795.561,377.104 785.5,378C 765.503,378.5 745.503,378.667 725.5,378.5C 721.829,398.852 717.996,419.185 714,439.5C 713.524,445.648 710.357,449.482 704.5,451C 682.833,451.667 661.167,451.667 639.5,451C 632.832,447.832 630.332,442.665 632,435.5C 635.645,416.107 639.479,396.774 643.5,377.5C 620.19,378.626 596.857,378.792 573.5,378C 566.862,373.983 564.696,368.15 567,360.5C 574.076,323.119 581.409,285.786 589,248.5C 590.353,241.208 590.686,233.875 590,226.5C 587.53,224.562 584.696,223.396 581.5,223C 564.17,222.5 546.837,222.333 529.5,222.5C 520.324,272.214 510.824,321.88 501,371.5C 499.878,373.624 498.378,375.457 496.5,377C 484.759,378.147 472.926,378.647 461,378.5C 449.074,378.647 437.241,378.147 425.5,377C 422.017,374.394 420.35,370.894 420.5,366.5C 423.411,349.787 426.244,333.12 429,316.5C 405.819,352.851 372.652,373.017 329.5,377C 306.526,378.373 283.526,378.873 260.5,378.5C 256.991,399.213 253.158,419.879 249,440.5C 248.228,446.235 245.062,449.735 239.5,451C 218.167,451.667 196.833,451.667 175.5,451C 168.167,448.356 165.334,443.189 167,435.5C 184.796,344.854 202.463,254.187 220,163.5C 221.36,160.265 223.527,157.765 226.5,156C 271.167,155.333 315.833,155.333 360.5,156C 387.77,157.057 410.937,167.223 430,186.5C 438.641,197.116 444.641,209.116 448,222.5C 456.333,179.5 464.667,136.5 473,93.5C 473.93,88.2826 476.763,84.6159 481.5,82.5 Z"/></g>
<g><path style="opacity:1" fill="#010101" d="M 637.5,366.5 C 617.472,367.154 597.805,366.488 578.5,364.5C 586.693,321.034 594.693,277.534 602.5,234C 602.37,219.038 594.704,211.538 579.5,211.5C 569.839,210.834 560.006,210.5 550,210.5C 539.81,210.501 529.977,211.168 520.5,212.5C 510.366,263.834 500.366,315.168 490.5,366.5C 471.167,366.5 451.833,366.5 432.5,366.5C 432.5,365.5 432.5,364.5 432.5,363.5C 449.834,273.832 467.167,184.165 484.5,94.5C 504.178,94.167 523.845,94.5004 543.5,95.5C 538.577,119.116 533.91,142.783 529.5,166.5C 555.851,166.197 582.184,166.697 608.5,168C 621.176,169.502 633.176,173.168 644.5,179C 660.801,191.463 667.301,207.963 664,228.5C 655.119,274.503 646.286,320.503 637.5,366.5 Z"/></g>
<g><path style="opacity:0.985" fill="#9da1c8" d="M 96.5,139.5 C 97.1147,145.189 97.948,150.856 99,156.5C 99.1216,158.437 99.955,159.77 101.5,160.5C 90.1341,170.865 79.4675,181.865 69.5,193.5C 66.8572,186.261 64.5238,178.928 62.5,171.5C 72.9015,159.763 84.2348,149.096 96.5,139.5 Z"/></g>
<g><path style="opacity:1" fill="#262626" d="M 358.5,167.5 C 315.761,167.172 273.094,167.506 230.5,168.5C 251.489,167.167 272.823,166.5 294.5,166.5C 316.003,166.5 337.336,166.833 358.5,167.5 Z"/></g>
<g><path style="opacity:1" fill="#262626" d="M 823.5,167.5 C 780.761,167.172 738.094,167.506 695.5,168.5C 716.489,167.167 737.823,166.5 759.5,166.5C 781.003,166.5 802.336,166.833 823.5,167.5 Z"/></g>
<g><path style="opacity:1" fill="#010101" d="M 358.5,167.5 C 415.838,171.666 442.004,202.332 437,259.5C 430.803,304.672 407.303,337.172 366.5,357C 351.337,362.5 335.671,365.833 319.5,367C 296.826,367.167 274.159,367.667 251.5,368.5C 246.654,391.065 242.32,413.732 238.5,436.5C 237.596,437.209 237.263,438.209 237.5,439.5C 217.66,439.83 197.993,439.497 178.5,438.5C 195.962,348.524 213.295,258.524 230.5,168.5C 273.094,167.506 315.761,167.172 358.5,167.5 Z"/></g>
<g><path style="opacity:1" fill="#010101" d="M 823.5,167.5 C 879.867,171.358 906.034,201.358 902,257.5C 895.856,305.624 870.69,339.457 826.5,359C 812.787,363.15 798.787,365.816 784.5,367C 761.833,367.333 739.167,367.667 716.5,368C 711.39,391.719 706.723,415.552 702.5,439.5C 682.472,440.154 662.805,439.488 643.5,437.5C 660.834,347.829 678.168,258.162 695.5,168.5C 738.094,167.506 780.761,167.172 823.5,167.5 Z"/></g>
<g><path style="opacity:0.983" fill="#9195bf" d="M 62.5,171.5 C 64.5238,178.928 66.8572,186.261 69.5,193.5C 60.2368,206.35 52.2368,220.017 45.5,234.5C 43.8762,234.64 42.7096,233.973 42,232.5C 38.9965,225.655 36.4965,218.655 34.5,211.5C 41.8615,196.802 51.1948,183.469 62.5,171.5 Z"/></g>
<g><path style="opacity:1" fill="#b3b3b3" d="M 798.5,210.5 C 781.09,210.181 763.756,210.515 746.5,211.5C 754.807,210.169 763.473,209.502 772.5,209.5C 781.34,209.5 790.007,209.834 798.5,210.5 Z"/></g>
<g><path style="opacity:1" fill="#f8f8f9" d="M 282.5,209.5 C 299.503,209.333 316.503,209.5 333.5,210C 344.162,210.221 354.162,212.888 363.5,218C 369.684,222.203 373.518,228.036 375,235.5C 377.85,262.249 371.017,286.082 354.5,307C 344.986,315.069 333.986,320.069 321.5,322C 301.238,324.262 280.905,325.095 260.5,324.5C 267.068,285.996 274.401,247.662 282.5,209.5 Z"/></g>
<g><path style="opacity:1" fill="#c3c3c3" d="M 579.5,211.5 C 559.757,211.179 540.091,211.513 520.5,212.5C 529.977,211.168 539.81,210.501 550,210.5C 560.006,210.5 569.839,210.834 579.5,211.5 Z"/></g>
<g><path style="opacity:1" fill="#fafafb" d="M 798.5,210.5 C 830.77,210.602 844.604,226.602 840,258.5C 837.803,271.423 833.803,283.757 828,295.5C 819.429,309.06 807.262,317.56 791.5,321C 784.89,322.326 778.224,323.16 771.5,323.5C 755.991,323.83 740.658,323.496 725.5,322.5C 732.113,285.433 739.113,248.433 746.5,211.5C 763.756,210.515 781.09,210.181 798.5,210.5 Z"/></g>
<g><path style="opacity:1" fill="#777bb3" d="M 304.5,312.5 C 294.5,312.5 284.5,312.5 274.5,312.5C 274.5,311.5 274.5,310.5 274.5,309.5C 280.19,280.547 285.69,251.547 291,222.5C 307.093,221.342 323.259,221.176 339.5,222C 346.952,222.927 353.786,225.427 360,229.5C 364.28,236.563 365.613,244.23 364,252.5C 362.872,267.217 358.538,280.884 351,293.5C 345.369,301.244 337.869,306.41 328.5,309C 320.616,310.985 312.616,312.152 304.5,312.5 Z"/></g>
<g><path style="opacity:1" fill="#777bb3" d="M 770.5,312.5 C 760.167,312.5 749.833,312.5 739.5,312.5C 739.5,311.5 739.5,310.5 739.5,309.5C 744.689,280.409 750.356,251.409 756.5,222.5C 772.156,221.334 787.823,221.167 803.5,222C 823.321,222.814 831.821,232.981 829,252.5C 827.708,267.684 823.042,281.684 815,294.5C 808.307,302.598 799.807,307.765 789.5,310C 783.186,311.053 776.853,311.886 770.5,312.5 Z"/></g>
<g><path style="opacity:0.987" fill="#8488b5" d="M 34.5,211.5 C 36.4965,218.655 38.9965,225.655 42,232.5C 42.7096,233.973 43.8762,234.64 45.5,234.5C 37.5276,253.663 33.8609,273.663 34.5,294.5C 28.4974,285.133 22.8307,275.466 17.5,265.5C 17.0431,264.702 16.3764,264.369 15.5,264.5C 18.7684,245.651 25.1018,227.984 34.5,211.5 Z"/></g>
<g><path style="opacity:1" fill="#cdcee3" d="M 274.5,309.5 C 274.5,310.5 274.5,311.5 274.5,312.5C 284.5,312.5 294.5,312.5 304.5,312.5C 294.347,313.494 284.014,313.828 273.5,313.5C 273.232,311.901 273.566,310.568 274.5,309.5 Z"/></g>
<g><path style="opacity:1" fill="#cbcce2" d="M 739.5,309.5 C 739.5,310.5 739.5,311.5 739.5,312.5C 749.833,312.5 760.167,312.5 770.5,312.5C 760.013,313.494 749.346,313.828 738.5,313.5C 738.232,311.901 738.566,310.568 739.5,309.5 Z"/></g>
<g><path style="opacity:0.993" fill="#7579ab" d="M 15.5,264.5 C 16.3764,264.369 17.0431,264.702 17.5,265.5C 22.8307,275.466 28.4974,285.133 34.5,294.5C 38.3676,330.892 52.5342,362.559 77,389.5C 104.704,418.737 136.204,442.737 171.5,461.5C 117.769,437.479 71.4352,403.479 32.5,359.5C 16.6852,329.75 11.0185,298.083 15.5,264.5 Z"/></g>
<g><path style="opacity:1" fill="#8f8f8f" d="M 725.5,322.5 C 740.658,323.496 755.991,323.83 771.5,323.5C 755.995,324.827 740.328,324.827 724.5,323.5C 724.624,322.893 724.957,322.56 725.5,322.5 Z"/></g>
<g><path style="opacity:1" fill="#454545" d="M 432.5,363.5 C 432.5,364.5 432.5,365.5 432.5,366.5C 451.833,366.5 471.167,366.5 490.5,366.5C 471.007,367.497 451.34,367.83 431.5,367.5C 431.232,365.901 431.566,364.568 432.5,363.5 Z"/></g>
<g><path style="opacity:1" fill="#434343" d="M 578.5,364.5 C 597.805,366.488 617.472,367.154 637.5,366.5C 617.674,367.497 597.674,367.83 577.5,367.5C 577.263,366.209 577.596,365.209 578.5,364.5 Z"/></g>
<g><path style="opacity:0.981" fill="#6d70a4" d="M 32.5,359.5 C 71.4352,403.479 117.769,437.479 171.5,461.5C 183.77,467.3 196.103,473.133 208.5,479C 270.891,504.739 335.557,522.239 402.5,531.5C 380.366,535.922 358.033,538.589 335.5,539.5C 255.999,524.231 182.666,494.397 115.5,450C 89.0245,430.857 65.8579,408.357 46,382.5C 40.9841,375.135 36.4841,367.468 32.5,359.5 Z"/></g>
<g><path style="opacity:1" fill="#9c9c9c" d="M 238.5,436.5 C 238.5,437.833 238.5,439.167 238.5,440.5C 218.156,440.833 197.822,440.5 177.5,439.5C 177.624,438.893 177.957,438.56 178.5,438.5C 197.993,439.497 217.66,439.83 237.5,439.5C 237.263,438.209 237.596,437.209 238.5,436.5 Z"/></g>
<g><path style="opacity:1" fill="#999999" d="M 643.5,437.5 C 662.805,439.488 682.472,440.154 702.5,439.5C 682.674,440.497 662.674,440.83 642.5,440.5C 642.263,439.209 642.596,438.209 643.5,437.5 Z"/></g>
<g><path style="opacity:0.988" fill="#5f639a" d="M 402.5,531.5 C 432.879,535.297 463.212,537.963 493.5,539.5C 491.143,539.337 488.81,539.503 486.5,540C 470.614,545.908 454.614,551.074 438.5,555.5C 403.654,552.635 369.321,547.302 335.5,539.5C 358.033,538.589 380.366,535.922 402.5,531.5 Z"/></g>
<g><path style="opacity:0.981" fill="#555992" d="M 493.5,539.5 C 512.833,539.5 532.167,539.5 551.5,539.5C 537.469,546.516 523.469,553.516 509.5,560.5C 485.735,559.619 462.069,557.953 438.5,555.5C 454.614,551.074 470.614,545.908 486.5,540C 488.81,539.503 491.143,539.337 493.5,539.5 Z"/></g>
</svg>
